<svg class="d" viewBox="0 0 640 352" role="img" aria-label="포지셔닝 맵(2×2)" xmlns="http://www.w3.org/2000/svg"><style>text{font-family:Pretendard,'Apple SD Gothic Neo',Arial,sans-serif;fill:#222}.title{font-size:12.7px;font-weight:600}.small{font-size:11.75px;fill:#555}.white{fill:#fff}.muted{fill:#ddd}</style><defs><marker id="arrow-positioning-wide" viewBox="0 0 8 8" refX="7" refY="4" markerWidth="6" markerHeight="6" orient="auto"><path d="M0 0L8 4L0 8Z" fill="#555"/></marker></defs><rect width="640" height="352" fill="#fff"/><rect x="80" y="20" width="240" height="150" fill="#fafafa" stroke="none"/><rect x="320" y="20" width="240" height="150" fill="#f2f2f2" stroke="none"/><rect x="80" y="170" width="240" height="150" fill="#f2f2f2" stroke="none"/><rect x="320" y="170" width="240" height="150" fill="#fafafa" stroke="none"/><text x="90" y="40" class="small" text-anchor="start">가성비 확장</text><text x="330" y="40" class="small" text-anchor="start">프리미엄</text><text x="90" y="190" class="small" text-anchor="start">저가 단순</text><text x="330" y="190" class="small" text-anchor="start">브랜드 중심</text><path d="M80 320H568" fill="none" stroke="#555" stroke-width="1.4"  marker-end="url(#arrow-positioning-wide)"/><path d="M80 320V12" fill="none" stroke="#555" stroke-width="1.4"  marker-end="url(#arrow-positioning-wide)"/><text x="80" y="342" class="small" text-anchor="start">낮은 가격</text><text x="560" y="342" class="small" text-anchor="end">높은 가격</text><text x="72" y="26" class="small" text-anchor="end">넓은 기능</text><text x="72" y="318" class="small" text-anchor="end">좁은 기능</text><circle cx="473.59999999999997" cy="110" r="5" fill="#8a8a8a"/><text x="483.59999999999997" y="114" class="small" text-anchor="start">A사</text><circle cx="185.6" cy="236" r="5" fill="#8a8a8a"/><text x="195.6" y="240" class="small" text-anchor="start">B사</text><circle cx="396.8" cy="218" r="5" fill="#8a8a8a"/><text x="406.8" y="222" class="small" text-anchor="start">C사</text><circle cx="329.6" cy="155" r="5" fill="#8a8a8a"/><text x="339.6" y="159" class="small" text-anchor="start">D사</text><circle cx="262.4" cy="86" r="7" fill="#303030"/><text x="274.4" y="91" class="title" text-anchor="start">자사</text></svg>