<svg class="d" viewBox="0 0 640 280" role="img" aria-label="매출 구성 트리" xmlns="http://www.w3.org/2000/svg"><style>text{font-family:Pretendard,'Apple SD Gothic Neo',Arial,sans-serif;fill:#222}.title{font-size:12.7px;font-weight:600}.small{font-size:11.75px;fill:#555}.white{fill:#fff}.muted{fill:#ddd}</style><defs><marker id="arrow-revenue-tree-wide" viewBox="0 0 8 8" refX="7" refY="4" markerWidth="6" markerHeight="6" orient="auto"><path d="M0 0L8 4L0 8Z" fill="#555"/></marker></defs><rect width="640" height="280" fill="#fff"/><rect x="230" y="10" width="180" height="60" fill="#303030" stroke="#303030"/><text x="320" y="36" class="title white" text-anchor="middle">매출 128억원</text><text x="320" y="56" class="small muted" text-anchor="middle">2025년 · 연결 기준</text><rect x="40" y="110" width="140" height="60" fill="#fff" stroke="#999"/><text x="110" y="136" class="title" text-anchor="middle">구독</text><text x="110" y="156" class="small" text-anchor="middle">74억원 · 58%</text><rect x="250" y="110" width="140" height="60" fill="#fff" stroke="#999"/><text x="320" y="136" class="title" text-anchor="middle">라이선스</text><text x="320" y="156" class="small" text-anchor="middle">35억원 · 27%</text><rect x="460" y="110" width="140" height="60" fill="#fff" stroke="#999"/><text x="530" y="136" class="title" text-anchor="middle">용역</text><text x="530" y="156" class="small" text-anchor="middle">19억원 · 15%</text><rect x="12" y="210" width="96" height="60" fill="#f2f2f2" stroke="#aaa"/><text x="60" y="236" class="title" text-anchor="middle">기업용</text><text x="60" y="256" class="small" text-anchor="middle">52억원</text><rect x="112" y="210" width="96" height="60" fill="#f2f2f2" stroke="#aaa"/><text x="160" y="236" class="title" text-anchor="middle">개인용</text><text x="160" y="256" class="small" text-anchor="middle">22억원</text><rect x="222" y="210" width="96" height="60" fill="#f2f2f2" stroke="#aaa"/><text x="270" y="236" class="title" text-anchor="middle">온프레미스</text><text x="270" y="256" class="small" text-anchor="middle">28억원</text><rect x="322" y="210" width="96" height="60" fill="#f2f2f2" stroke="#aaa"/><text x="370" y="236" class="title" text-anchor="middle">OEM</text><text x="370" y="256" class="small" text-anchor="middle">7억원</text><path d="M320 70V90" fill="none" stroke="#555" stroke-width="1.4"  /><path d="M110 90H530" fill="none" stroke="#555" stroke-width="1.4"  /><path d="M110 90V110" fill="none" stroke="#555" stroke-width="1.4"  marker-end="url(#arrow-revenue-tree-wide)"/><path d="M320 90V110" fill="none" stroke="#555" stroke-width="1.4"  marker-end="url(#arrow-revenue-tree-wide)"/><path d="M530 90V110" fill="none" stroke="#555" stroke-width="1.4"  marker-end="url(#arrow-revenue-tree-wide)"/><path d="M110 170V190" fill="none" stroke="#555" stroke-width="1.4"  /><path d="M60 190H160" fill="none" stroke="#555" stroke-width="1.4"  /><path d="M60 190V210" fill="none" stroke="#555" stroke-width="1.4"  marker-end="url(#arrow-revenue-tree-wide)"/><path d="M160 190V210" fill="none" stroke="#555" stroke-width="1.4"  marker-end="url(#arrow-revenue-tree-wide)"/><path d="M320 170V190" fill="none" stroke="#555" stroke-width="1.4"  /><path d="M270 190H370" fill="none" stroke="#555" stroke-width="1.4"  /><path d="M270 190V210" fill="none" stroke="#555" stroke-width="1.4"  marker-end="url(#arrow-revenue-tree-wide)"/><path d="M370 190V210" fill="none" stroke="#555" stroke-width="1.4"  marker-end="url(#arrow-revenue-tree-wide)"/></svg>